<svg width="200" height="200" viewBox="0 0 200 200" fill="none" xmlns="http://www.w3.org/2000/svg">
<rect width="200" height="200" fill="#45A5B1"/>
<path d="M142.191 109.205L151.876 66.9554C152.575 63.9049 150.236 61 147.081 61H66.6155L64.7378 51.898C64.2699 49.6293 62.2565 48 59.9209 48H38.9167C36.2012 48 34 50.1826 34 52.875V56.125C34 58.8174 36.2012 61 38.9167 61H53.233L67.6241 130.76C64.1812 132.723 61.8611 136.404 61.8611 140.625C61.8611 146.907 66.9974 152 73.3333 152C79.6693 152 84.8056 146.907 84.8056 140.625C84.8056 137.441 83.4848 134.565 81.359 132.5H124.308C122.182 134.565 120.861 137.441 120.861 140.625C120.861 146.907 125.997 152 132.333 152C138.669 152 143.806 146.907 143.806 140.625C143.806 136.121 141.165 132.229 137.336 130.386L138.466 125.455C139.166 122.405 136.827 119.5 133.672 119.5H78.6837L77.3429 113H137.397C139.693 113 141.683 111.425 142.191 109.205Z" fill="white"/>
</svg>
