<svg width="340" height="75" viewBox="0 0 340 75" fill="none" xmlns="http://www.w3.org/2000/svg">
<path d="M100.184 16.728C100.568 16.728 100.888 16.7493 101.144 16.792C101.4 16.8133 101.624 16.8773 101.816 16.984C102.029 17.0693 102.232 17.208 102.424 17.4C102.616 17.5707 102.829 17.8053 103.064 18.104L127.352 49.048C127.267 48.3013 127.203 47.576 127.16 46.872C127.139 46.1467 127.128 45.4747 127.128 44.856V16.728H134.712V63H130.264C129.581 63 129.016 62.8933 128.568 62.68C128.12 62.4667 127.683 62.0827 127.256 61.528L103.064 30.712C103.128 31.3947 103.171 32.0773 103.192 32.76C103.235 33.4213 103.256 34.0293 103.256 34.584V63H95.672V16.728H100.184ZM157.167 29.656C159.236 29.656 161.135 29.9867 162.863 30.648C164.612 31.3093 166.116 32.28 167.375 33.56C168.634 34.8187 169.615 36.376 170.319 38.232C171.023 40.0667 171.375 42.168 171.375 44.536C171.375 45.1333 171.343 45.6347 171.279 46.04C171.236 46.424 171.14 46.7333 170.991 46.968C170.863 47.1813 170.682 47.3413 170.447 47.448C170.212 47.5333 169.914 47.576 169.551 47.576H149.263C149.498 50.9467 150.404 53.4213 151.983 55C153.562 56.5787 155.652 57.368 158.255 57.368C159.535 57.368 160.634 57.2187 161.551 56.92C162.49 56.6213 163.3 56.2907 163.983 55.928C164.687 55.5653 165.295 55.2347 165.807 54.936C166.34 54.6373 166.852 54.488 167.343 54.488C167.663 54.488 167.94 54.552 168.175 54.68C168.41 54.808 168.612 54.9893 168.783 55.224L171.087 58.104C170.212 59.128 169.231 59.992 168.143 60.696C167.055 61.3787 165.914 61.9333 164.719 62.36C163.546 62.7653 162.34 63.0533 161.103 63.224C159.887 63.3947 158.703 63.48 157.551 63.48C155.268 63.48 153.146 63.1067 151.183 62.36C149.22 61.592 147.514 60.472 146.063 59C144.612 57.5067 143.471 55.672 142.639 53.496C141.807 51.2987 141.391 48.76 141.391 45.88C141.391 43.64 141.754 41.5387 142.479 39.576C143.204 37.592 144.239 35.8747 145.583 34.424C146.948 32.952 148.602 31.7893 150.543 30.936C152.506 30.0827 154.714 29.656 157.167 29.656ZM157.327 35.32C155.023 35.32 153.22 35.9707 151.919 37.272C150.618 38.5733 149.786 40.4187 149.423 42.808H164.271C164.271 41.784 164.132 40.824 163.855 39.928C163.578 39.0107 163.151 38.2107 162.575 37.528C161.999 36.8453 161.274 36.312 160.399 35.928C159.524 35.5227 158.5 35.32 157.327 35.32ZM189.147 29.592C190.555 29.592 191.877 29.7413 193.115 30.04C194.352 30.3173 195.483 30.7333 196.507 31.288H205.947V34.232C205.947 34.7227 205.819 35.1067 205.562 35.384C205.307 35.6613 204.869 35.8533 204.251 35.96L201.307 36.504C201.52 37.0587 201.68 37.6453 201.787 38.264C201.915 38.8827 201.979 39.5333 201.979 40.216C201.979 41.8373 201.648 43.3093 200.987 44.632C200.347 45.9333 199.451 47.0427 198.299 47.96C197.168 48.8773 195.813 49.592 194.235 50.104C192.677 50.5947 190.981 50.84 189.147 50.84C187.909 50.84 186.704 50.7227 185.531 50.488C184.507 51.1067 183.995 51.8 183.995 52.568C183.995 53.2293 184.293 53.72 184.891 54.04C185.509 54.3387 186.309 54.552 187.291 54.68C188.293 54.808 189.424 54.8933 190.683 54.936C191.941 54.9573 193.232 55.0213 194.555 55.128C195.877 55.2347 197.168 55.4267 198.427 55.704C199.685 55.96 200.805 56.376 201.787 56.952C202.789 57.528 203.589 58.3173 204.187 59.32C204.805 60.3013 205.115 61.5707 205.115 63.128C205.115 64.5787 204.752 65.9867 204.027 67.352C203.323 68.7173 202.288 69.9333 200.923 71C199.579 72.0667 197.925 72.92 195.963 73.56C194 74.2213 191.76 74.552 189.243 74.552C186.747 74.552 184.581 74.3067 182.747 73.816C180.912 73.3467 179.387 72.7067 178.171 71.896C176.976 71.1067 176.08 70.1893 175.483 69.144C174.885 68.0987 174.587 67.0107 174.587 65.88C174.587 64.344 175.056 63.0533 175.995 62.008C176.933 60.9627 178.235 60.1307 179.899 59.512C179.088 59.064 178.437 58.4667 177.947 57.72C177.456 56.9733 177.211 56.0027 177.211 54.808C177.211 54.3173 177.296 53.816 177.467 53.304C177.637 52.7707 177.893 52.248 178.235 51.736C178.597 51.224 179.045 50.744 179.579 50.296C180.112 49.8267 180.741 49.4107 181.467 49.048C179.803 48.152 178.491 46.9573 177.531 45.464C176.592 43.9707 176.123 42.2213 176.123 40.216C176.123 38.5947 176.443 37.1333 177.083 35.832C177.744 34.5093 178.651 33.3893 179.803 32.472C180.976 31.5333 182.352 30.8187 183.931 30.328C185.531 29.8373 187.269 29.592 189.147 29.592ZM197.819 64.472C197.819 63.832 197.627 63.3093 197.243 62.904C196.859 62.4987 196.336 62.1893 195.675 61.976C195.013 61.7413 194.235 61.5707 193.339 61.464C192.464 61.3573 191.525 61.2827 190.523 61.24C189.541 61.176 188.517 61.1227 187.451 61.08C186.405 61.016 185.392 60.92 184.411 60.792C183.515 61.2827 182.789 61.8693 182.235 62.552C181.701 63.2133 181.435 63.9813 181.435 64.856C181.435 65.432 181.573 65.9653 181.851 66.456C182.149 66.968 182.608 67.4053 183.227 67.768C183.867 68.1307 184.688 68.408 185.691 68.6C186.693 68.8133 187.92 68.92 189.371 68.92C190.843 68.92 192.112 68.8027 193.179 68.568C194.245 68.3547 195.12 68.0453 195.803 67.64C196.507 67.256 197.019 66.7867 197.339 66.232C197.659 65.6987 197.819 65.112 197.819 64.472ZM189.147 45.784C190.128 45.784 190.981 45.656 191.707 45.4C192.432 45.1227 193.029 44.7493 193.499 44.28C193.989 43.8107 194.352 43.2453 194.587 42.584C194.843 41.9227 194.971 41.1973 194.971 40.408C194.971 38.7867 194.48 37.5067 193.499 36.568C192.539 35.608 191.088 35.128 189.147 35.128C187.205 35.128 185.744 35.608 184.763 36.568C183.803 37.5067 183.323 38.7867 183.323 40.408C183.323 41.176 183.44 41.8907 183.675 42.552C183.931 43.2133 184.293 43.7893 184.763 44.28C185.253 44.7493 185.861 45.1227 186.587 45.4C187.333 45.656 188.187 45.784 189.147 45.784ZM224.928 29.656C227.381 29.656 229.6 30.0507 231.584 30.84C233.589 31.6293 235.296 32.7493 236.704 34.2C238.112 35.6507 239.2 37.4213 239.968 39.512C240.736 41.6027 241.12 43.9387 241.12 46.52C241.12 49.1227 240.736 51.4693 239.968 53.56C239.2 55.6507 238.112 57.432 236.704 58.904C235.296 60.376 233.589 61.5067 231.584 62.296C229.6 63.0853 227.381 63.48 224.928 63.48C222.474 63.48 220.245 63.0853 218.24 62.296C216.234 61.5067 214.517 60.376 213.088 58.904C211.68 57.432 210.581 55.6507 209.792 53.56C209.024 51.4693 208.64 49.1227 208.64 46.52C208.64 43.9387 209.024 41.6027 209.792 39.512C210.581 37.4213 211.68 35.6507 213.088 34.2C214.517 32.7493 216.234 31.6293 218.24 30.84C220.245 30.0507 222.474 29.656 224.928 29.656ZM224.928 57.4C227.658 57.4 229.674 56.4827 230.976 54.648C232.298 52.8133 232.96 50.1253 232.96 46.584C232.96 43.0427 232.298 40.344 230.976 38.488C229.674 36.632 227.658 35.704 224.928 35.704C222.154 35.704 220.106 36.6427 218.784 38.52C217.461 40.376 216.8 43.064 216.8 46.584C216.8 50.104 217.461 52.792 218.784 54.648C220.106 56.4827 222.154 57.4 224.928 57.4ZM270.359 37.112C270.124 37.4107 269.889 37.6453 269.655 37.816C269.441 37.9867 269.121 38.072 268.695 38.072C268.289 38.072 267.895 37.9547 267.511 37.72C267.127 37.464 266.668 37.1867 266.135 36.888C265.601 36.568 264.961 36.2907 264.215 36.056C263.489 35.8 262.583 35.672 261.495 35.672C260.108 35.672 258.892 35.928 257.847 36.44C256.801 36.9307 255.927 37.6453 255.223 38.584C254.54 39.5227 254.028 40.664 253.687 42.008C253.345 43.3307 253.175 44.8347 253.175 46.52C253.175 48.2693 253.356 49.8267 253.719 51.192C254.103 52.5573 254.647 53.7093 255.351 54.648C256.055 55.5653 256.908 56.2693 257.911 56.76C258.913 57.2293 260.044 57.464 261.303 57.464C262.561 57.464 263.575 57.3147 264.343 57.016C265.132 56.696 265.793 56.3547 266.327 55.992C266.86 55.608 267.319 55.2667 267.703 54.968C268.108 54.648 268.556 54.488 269.047 54.488C269.687 54.488 270.167 54.7333 270.487 55.224L272.759 58.104C271.884 59.128 270.935 59.992 269.911 60.696C268.887 61.3787 267.82 61.9333 266.711 62.36C265.623 62.7653 264.492 63.0533 263.319 63.224C262.145 63.3947 260.983 63.48 259.831 63.48C257.804 63.48 255.895 63.1067 254.103 62.36C252.311 61.592 250.743 60.4827 249.399 59.032C248.076 57.5813 247.02 55.8107 246.231 53.72C245.463 51.608 245.079 49.208 245.079 46.52C245.079 44.1093 245.42 41.88 246.103 39.832C246.807 37.7627 247.831 35.9813 249.175 34.488C250.519 32.9733 252.183 31.7893 254.167 30.936C256.151 30.0827 258.433 29.656 261.015 29.656C263.468 29.656 265.612 30.0507 267.447 30.84C269.303 31.6293 270.967 32.76 272.439 34.232L270.359 37.112ZM286.203 30.168V63H278.299V30.168H286.203ZM287.387 20.6C287.387 21.2827 287.248 21.9227 286.971 22.52C286.693 23.1173 286.32 23.64 285.851 24.088C285.403 24.536 284.869 24.8987 284.251 25.176C283.632 25.432 282.971 25.56 282.267 25.56C281.584 25.56 280.933 25.432 280.315 25.176C279.717 24.8987 279.195 24.536 278.747 24.088C278.299 23.64 277.936 23.1173 277.659 22.52C277.403 21.9227 277.275 21.2827 277.275 20.6C277.275 19.896 277.403 19.2347 277.659 18.616C277.936 17.9973 278.299 17.464 278.747 17.016C279.195 16.568 279.717 16.216 280.315 15.96C280.933 15.6827 281.584 15.544 282.267 15.544C282.971 15.544 283.632 15.6827 284.251 15.96C284.869 16.216 285.403 16.568 285.851 17.016C286.32 17.464 286.693 17.9973 286.971 18.616C287.248 19.2347 287.387 19.896 287.387 20.6ZM309.178 29.656C311.631 29.656 313.85 30.0507 315.834 30.84C317.839 31.6293 319.546 32.7493 320.954 34.2C322.362 35.6507 323.45 37.4213 324.218 39.512C324.986 41.6027 325.37 43.9387 325.37 46.52C325.37 49.1227 324.986 51.4693 324.218 53.56C323.45 55.6507 322.362 57.432 320.954 58.904C319.546 60.376 317.839 61.5067 315.834 62.296C313.85 63.0853 311.631 63.48 309.178 63.48C306.724 63.48 304.495 63.0853 302.49 62.296C300.484 61.5067 298.767 60.376 297.338 58.904C295.93 57.432 294.831 55.6507 294.042 53.56C293.274 51.4693 292.89 49.1227 292.89 46.52C292.89 43.9387 293.274 41.6027 294.042 39.512C294.831 37.4213 295.93 35.6507 297.338 34.2C298.767 32.7493 300.484 31.6293 302.49 30.84C304.495 30.0507 306.724 29.656 309.178 29.656ZM309.178 57.4C311.908 57.4 313.924 56.4827 315.226 54.648C316.548 52.8133 317.21 50.1253 317.21 46.584C317.21 43.0427 316.548 40.344 315.226 38.488C313.924 36.632 311.908 35.704 309.178 35.704C306.404 35.704 304.356 36.6427 303.034 38.52C301.711 40.376 301.05 43.064 301.05 46.584C301.05 50.104 301.711 52.792 303.034 54.648C304.356 56.4827 306.404 57.4 309.178 57.4Z" fill="black"/>
<path d="M70 38C70 44.9223 67.9473 51.6892 64.1014 57.445C60.2556 63.2007 54.7893 67.6867 48.3939 70.3358C41.9985 72.9849 34.9612 73.678 28.1718 72.3275C21.3825 70.977 15.1461 67.6436 10.2513 62.7487C5.35642 57.8539 2.023 51.6175 0.672515 44.8282C-0.677968 38.0388 0.0151493 31.0015 2.66422 24.6061C5.31328 18.2107 9.79932 12.7444 15.555 8.89856C21.3108 5.05271 28.0777 3 35 3L35 38H70Z" fill="#56CAD8"/>
</svg>
