<svg width="200" height="200" viewBox="0 0 200 200" fill="none" xmlns="http://www.w3.org/2000/svg">
<rect width="200" height="200" fill="#45A5B1"/>
<path d="M87.8181 101.059C88.99 102.231 90.8894 102.231 92.0613 101.059L94.1819 98.9387C95.3538 97.7669 95.3538 95.8675 94.1819 94.6956L87.4844 88L94.18 81.3025C95.3519 80.1306 95.3519 78.2312 94.18 77.0594L92.0594 74.9387C90.8875 73.7669 88.9881 73.7669 87.8163 74.9387L76.8775 85.8775C75.7056 87.0494 75.7056 88.9487 76.8775 90.1206L87.8181 101.059V101.059ZM105.82 98.9406L107.941 101.061C109.113 102.233 111.012 102.233 112.184 101.061L123.123 90.1225C124.294 88.9506 124.294 87.0513 123.123 85.8794L112.184 74.9406C111.012 73.7687 109.113 73.7687 107.941 74.9406L105.82 77.0613C104.648 78.2331 104.648 80.1325 105.82 81.3044L112.516 88L105.82 94.6975C104.648 95.8694 104.648 97.7688 105.82 98.9406V98.9406ZM157 130H111.539C111.4 133.714 108.781 136 105.4 136H94C90.4956 136 87.8087 132.724 87.8556 130H43C41.35 130 40 131.35 40 133V136C40 142.6 45.4 148 52 148H148C154.6 148 160 142.6 160 136V133C160 131.35 158.65 130 157 130ZM148 61C148 56.05 143.95 52 139 52H61C56.05 52 52 56.05 52 61V124H148V61ZM136 112H64V64H136V112Z" fill="white"/>
</svg>
