<svg width="200" height="200" viewBox="0 0 200 200" fill="none" xmlns="http://www.w3.org/2000/svg">
<rect width="200" height="200" fill="#45A5B1"/>
<path d="M136.143 93.375H131.214V78.4688C131.214 61.1195 117.209 47 100 47C82.7911 47 68.7857 61.1195 68.7857 78.4688V93.375H63.8571C58.4152 93.375 54 97.8262 54 103.312V143.062C54 148.549 58.4152 153 63.8571 153H136.143C141.585 153 146 148.549 146 143.062V103.312C146 97.8262 141.585 93.375 136.143 93.375ZM114.786 93.375H85.2143V78.4688C85.2143 70.2496 91.8473 63.5625 100 63.5625C108.153 63.5625 114.786 70.2496 114.786 78.4688V93.375Z" fill="white"/>
</svg>
