<svg width="138" height="138" viewBox="0 0 138 138" fill="none" xmlns="http://www.w3.org/2000/svg">
<rect width="138" height="138" fill="#02ABEF"/>
<path d="M107.749 54.1929C107.806 54.9913 107.806 55.7899 107.806 56.5883C107.806 80.9405 89.2465 109 55.325 109C44.8744 109 35.1663 105.977 27 100.731C28.4848 100.902 29.9124 100.959 31.4543 100.959C40.0773 100.959 48.0153 98.0501 54.3541 93.0884C46.245 92.9172 39.4492 87.6133 37.1078 80.3133C38.25 80.4843 39.3921 80.5984 40.5915 80.5984C42.2475 80.5984 43.9037 80.3701 45.4455 79.9711C36.9937 78.26 30.6547 70.8461 30.6547 61.8922V61.6641C33.1102 63.0329 35.9658 63.8883 38.9922 64.0023C34.0239 60.6944 30.7689 55.0484 30.7689 48.6608C30.7689 45.239 31.6825 42.1023 33.2816 39.3648C42.3616 50.5429 56.0102 57.8428 71.3146 58.6413C71.0292 57.2726 70.8578 55.8469 70.8578 54.4211C70.8578 44.2694 79.0812 36 89.3033 36C94.6142 36 99.4111 38.2242 102.78 41.8172C106.949 41.0188 110.947 39.4789 114.487 37.3688C113.117 41.6462 110.204 45.2392 106.378 47.5203C110.09 47.1212 113.688 46.0944 117 44.6688C114.488 48.3187 111.347 51.5693 107.749 54.1929V54.1929Z" fill="white"/>
</svg>
